<svg xmlns="http://www.w3.org/2000/svg" data-name="Layer 1" viewBox="0 0 100 125" x="0px" y="0px"><title>education</title><path d="M53.86,77.77,86.92,44.71a5.39,5.39,0,0,0,0-7.61l-24-24a5.39,5.39,0,0,0-7.61,0L22.23,46.14,14.17,54.2a9.12,9.12,0,0,0,0,12.88L32.92,85.83a9.15,9.15,0,0,0,.71.64H13.13a1,1,0,0,0,0,2H38.89l.47,0,.47,0H61.95a1,1,0,1,0,0-2H45.09a9.15,9.15,0,0,0,.71-.64ZM56.7,14.49a3.38,3.38,0,0,1,4.78,0l24,24a3.39,3.39,0,0,1,0,4.78L53.15,75.65,24.35,46.84Zm-17.88,72a7.06,7.06,0,0,1-4.49-2.06L15.58,65.67a7.11,7.11,0,0,1,0-10.06l7.35-7.35L51.74,77.06l-7.35,7.35a7.06,7.06,0,0,1-4.49,2.06Z"/><text x="0" y="115" fill="#000000" font-size="5px" font-weight="bold" font-family="'Helvetica Neue', Helvetica, Arial-Unicode, Arial, Sans-serif">Created by Edwin PM</text><text x="0" y="120" fill="#000000" font-size="5px" font-weight="bold" font-family="'Helvetica Neue', Helvetica, Arial-Unicode, Arial, Sans-serif">from the Noun Project</text></svg>