<svg width="18" height="18" viewBox="0 0 18 18" fill="none" xmlns="http://www.w3.org/2000/svg">
<path opacity="0.4" d="M9.00012 16.5C13.1423 16.5 16.5001 13.1421 16.5001 9C16.5001 4.85786 13.1423 1.5 9.00012 1.5C4.85799 1.5 1.50012 4.85786 1.50012 9C1.50012 13.1421 4.85799 16.5 9.00012 16.5Z" fill="#151B33"/>
<path d="M12.0001 8.4375H9.56262V6C9.56262 5.6925 9.30762 5.4375 9.00012 5.4375C8.69262 5.4375 8.43762 5.6925 8.43762 6V8.4375H6.00012C5.69262 8.4375 5.43762 8.6925 5.43762 9C5.43762 9.3075 5.69262 9.5625 6.00012 9.5625H8.43762V12C8.43762 12.3075 8.69262 12.5625 9.00012 12.5625C9.30762 12.5625 9.56262 12.3075 9.56262 12V9.5625H12.0001C12.3076 9.5625 12.5626 9.3075 12.5626 9C12.5626 8.6925 12.3076 8.4375 12.0001 8.4375Z" fill="#151B33"/>
</svg>
