<svg width="30" height="30" viewBox="0 0 30 30" fill="none" xmlns="http://www.w3.org/2000/svg">
<path d="M26.3375 6.5375C24.325 6.3375 22.3125 6.1875 20.2875 6.075V6.0625L20.0125 4.4375C19.825 3.2875 19.55 1.5625 16.625 1.5625H13.35C10.4375 1.5625 10.1625 3.2125 9.96245 4.425L9.69995 6.025C8.53745 6.1 7.37495 6.175 6.21245 6.2875L3.66245 6.5375C3.13745 6.5875 2.76245 7.05 2.81245 7.5625C2.86245 8.075 3.31245 8.45 3.83745 8.4L6.38745 8.15C12.9375 7.5 19.5375 7.75 26.1625 8.4125C26.2 8.4125 26.225 8.4125 26.2625 8.4125C26.7375 8.4125 27.15 8.05 27.2 7.5625C27.2375 7.05 26.8625 6.5875 26.3375 6.5375Z" fill="#FE7151"/>
<path opacity="0.3991" d="M24.0376 10.175C23.7376 9.8625 23.3251 9.6875 22.9001 9.6875H7.10005C6.67505 9.6875 6.25005 9.8625 5.96255 10.175C5.67505 10.4875 5.51255 10.9125 5.53755 11.35L6.31255 24.175C6.45005 26.075 6.62505 28.45 10.9876 28.45H19.0126C23.3751 28.45 23.5501 26.0875 23.6876 24.175L24.4626 11.3625C24.4876 10.9125 24.3251 10.4875 24.0376 10.175Z" fill="#FE7151"/>
<path fill-rule="evenodd" clip-rule="evenodd" d="M11.975 21.25C11.975 20.7322 12.3947 20.3125 12.9125 20.3125H17.075C17.5927 20.3125 18.0125 20.7322 18.0125 21.25C18.0125 21.7678 17.5927 22.1875 17.075 22.1875H12.9125C12.3947 22.1875 11.975 21.7678 11.975 21.25Z" fill="#FE7151"/>
<path fill-rule="evenodd" clip-rule="evenodd" d="M10.9375 16.25C10.9375 15.7322 11.3572 15.3125 11.875 15.3125H18.125C18.6428 15.3125 19.0625 15.7322 19.0625 16.25C19.0625 16.7678 18.6428 17.1875 18.125 17.1875H11.875C11.3572 17.1875 10.9375 16.7678 10.9375 16.25Z" fill="#FE7151"/>
</svg>
