<svg width="18" height="18" viewBox="0 0 18 18" fill="none" xmlns="http://www.w3.org/2000/svg">
<path opacity="0.4" d="M15.75 16.5H2.25C1.9425 16.5 1.6875 16.245 1.6875 15.9375C1.6875 15.63 1.9425 15.375 2.25 15.375H15.75C16.0575 15.375 16.3125 15.63 16.3125 15.9375C16.3125 16.245 16.0575 16.5 15.75 16.5Z" fill="black"/>
<path opacity="0.4" d="M14.265 2.61C12.81 1.155 11.385 1.1175 9.89249 2.61L8.98499 3.5175C8.90999 3.5925 8.87999 3.7125 8.90999 3.8175C9.47999 5.805 11.07 7.395 13.0575 7.965C13.0875 7.9725 13.1175 7.98 13.1475 7.98C13.23 7.98 13.305 7.95 13.365 7.89L14.265 6.9825C15.0075 6.2475 15.3675 5.535 15.3675 4.815C15.375 4.0725 15.015 3.3525 14.265 2.61Z" fill="black"/>
<path d="M11.7075 8.64751C11.49 8.54251 11.28 8.43751 11.0775 8.31751C10.9125 8.22001 10.755 8.11501 10.5975 8.00251C10.47 7.92001 10.32 7.80001 10.1775 7.68001C10.1625 7.67251 10.11 7.62751 10.05 7.56751C9.8025 7.35751 9.525 7.08751 9.2775 6.78751C9.255 6.77251 9.2175 6.72001 9.165 6.65251C9.09 6.56251 8.9625 6.41251 8.85 6.24001C8.76 6.12751 8.655 5.96251 8.5575 5.79751C8.4375 5.59501 8.3325 5.39251 8.2275 5.18251C8.1225 4.95751 8.04 4.74001 7.965 4.53751L3.255 9.24751C3.1575 9.34501 3.06749 9.53251 3.04499 9.66001L2.63999 12.5325C2.56499 13.0425 2.7075 13.5225 3.0225 13.845C3.2925 14.1075 3.66749 14.25 4.07249 14.25C4.16249 14.25 4.2525 14.2425 4.3425 14.2275L7.2225 13.8225C7.3575 13.8 7.545 13.71 7.635 13.6125L12.345 8.90251C12.135 8.82751 11.9325 8.74501 11.7075 8.64751Z" fill="black"/>
</svg>
