<svg width="30" height="30" viewBox="0 0 30 30" fill="none" xmlns="http://www.w3.org/2000/svg">
<path opacity="0.4" d="M20 2.50003H10C5 2.50003 2.5 5.00003 2.5 10V26.25C2.5 26.9375 3.0625 27.5 3.75 27.5H20C25 27.5 27.5 25 27.5 20V10C27.5 5.00003 25 2.50003 20 2.50003Z" fill="#FEAC4C"/>
<path d="M20.6874 9.32502C19.1124 7.75002 17.5874 7.71252 15.9749 9.32502L14.9874 10.3125C14.8999 10.4 14.8749 10.525 14.8999 10.6375C15.5124 12.7875 17.2249 14.5 19.3749 15.1125C19.3999 15.125 19.4374 15.125 19.4749 15.125C19.5624 15.125 19.6499 15.0875 19.7124 15.025L20.6874 14.05C21.4874 13.25 21.8749 12.4875 21.8749 11.7125C21.8749 10.9 21.4874 10.125 20.6874 9.32502Z" fill="#FEAC4C"/>
<path d="M17.9249 15.8375C17.6874 15.725 17.4624 15.6125 17.2499 15.475C17.0749 15.375 16.8999 15.2625 16.7374 15.1375C16.5999 15.05 16.4374 14.925 16.2749 14.7875C16.2499 14.775 16.1999 14.7375 16.1374 14.6625C15.8749 14.4375 15.5749 14.1375 15.2999 13.825C15.2749 13.8125 15.2374 13.75 15.1874 13.675C15.0999 13.575 14.9749 13.4125 14.8499 13.2375C14.7499 13.1125 14.6374 12.9375 14.5374 12.7625C14.4124 12.55 14.2874 12.325 14.1874 12.1C14.0749 11.85 13.9874 11.625 13.8999 11.4L9.18744 16.1125C8.87494 16.425 8.58744 17 8.52494 17.425L8.16243 20.025C8.07493 20.575 8.23741 21.0875 8.57491 21.4375C8.86241 21.725 9.26244 21.875 9.69994 21.875C9.79994 21.875 9.88742 21.8625 9.98742 21.85L12.5874 21.4875C13.0124 21.425 13.5874 21.1375 13.8999 20.825L18.6124 16.1125C18.3874 16.025 18.1624 15.9375 17.9249 15.8375Z" fill="#FEAC4C"/>
</svg>
