<svg width="20" height="20" viewBox="0 0 20 20" fill="none" xmlns="http://www.w3.org/2000/svg">
<path d="M18.3334 7.24165C18.3334 8.23331 18.175 9.14998 17.9 9.99998H2.10002C1.82502 9.14998 1.66669 8.23331 1.66669 7.24165C1.66669 4.66665 3.74169 2.58331 6.30002 2.58331C7.80835 2.58331 9.15835 3.31665 10 4.44165C10.8417 3.31665 12.1917 2.58331 13.7 2.58331C16.2584 2.58331 18.3334 4.66665 18.3334 7.24165Z" fill="white"/>
<path opacity="0.4" d="M17.9 10C16.5833 14.1667 12.525 16.6583 10.5166 17.3417C10.2333 17.4417 9.76664 17.4417 9.48331 17.3417C7.47498 16.6583 3.41664 14.1667 2.09998 10H17.9Z" fill="white"/>
</svg>
