<svg width="26" height="26" viewBox="0 0 26 26" fill="none" xmlns="http://www.w3.org/2000/svg">
<path opacity="0.4" d="M9.75 7.79999V18.1892C9.75 21.6667 11.9167 23.8333 15.3833 23.8333H18.1892C21.6558 23.8333 23.8225 21.6667 23.8225 18.2V7.79999C23.8333 4.33332 21.6667 2.16666 18.2 2.16666H15.3833C11.9167 2.16666 9.75 4.33332 9.75 7.79999Z" fill="white"/>
<path d="M13.4658 8.79667L17.095 12.4258C17.4091 12.74 17.4091 13.26 17.095 13.5742L13.4658 17.2033C13.1516 17.5175 12.6316 17.5175 12.3175 17.2033C12.0033 16.8892 12.0033 16.3692 12.3175 16.055L14.56 13.8125H2.97913C2.53496 13.8125 2.16663 13.4442 2.16663 13C2.16663 12.5558 2.53496 12.1875 2.97913 12.1875H14.56L12.3175 9.945C12.155 9.7825 12.0791 9.57667 12.0791 9.37083C12.0791 9.165 12.155 8.95917 12.3175 8.79667C12.6316 8.47167 13.1408 8.47167 13.4658 8.79667Z" fill="white"/>
</svg>
