<svg width="26" height="26" viewBox="0 0 26 26" fill="none" xmlns="http://www.w3.org/2000/svg">
<path opacity="0.4" d="M17.3332 2.16663H8.6665C4.33317 2.16663 2.1665 4.33329 2.1665 8.66663V22.75C2.1665 23.3458 2.654 23.8333 3.24984 23.8333H17.3332C21.6665 23.8333 23.8332 21.6666 23.8332 17.3333V8.66663C23.8332 4.33329 21.6665 2.16663 17.3332 2.16663Z" fill="white"/>
<path d="M17.9292 8.08166C16.5642 6.71666 15.2425 6.68416 13.845 8.08166L12.9892 8.93749C12.9133 9.01332 12.8917 9.12166 12.9134 9.21916C13.4442 11.0825 14.9283 12.5667 16.7917 13.0975C16.8133 13.1083 16.8458 13.1083 16.8783 13.1083C16.9542 13.1083 17.03 13.0758 17.0842 13.0217L17.9292 12.1767C18.6225 11.4833 18.9583 10.8225 18.9583 10.1508C18.9583 9.44666 18.6225 8.77499 17.9292 8.08166Z" fill="white"/>
<path d="M15.5349 13.7258C15.3291 13.6283 15.1341 13.5308 14.9499 13.4116C14.7983 13.325 14.6466 13.2275 14.5058 13.1191C14.3866 13.0433 14.2458 12.935 14.1049 12.8158C14.0833 12.805 14.0399 12.7725 13.9858 12.7075C13.7583 12.5125 13.4983 12.2525 13.2599 11.9816C13.2383 11.9708 13.2058 11.9166 13.1624 11.8516C13.0866 11.765 12.9783 11.6241 12.8699 11.4725C12.7833 11.3641 12.6858 11.2125 12.5991 11.0608C12.4908 10.8766 12.3824 10.6816 12.2958 10.4866C12.1983 10.27 12.1224 10.075 12.0466 9.87997L7.96244 13.9641C7.69161 14.235 7.44245 14.7333 7.38828 15.1016L7.0741 17.355C6.99827 17.8316 7.13909 18.2758 7.43159 18.5791C7.68076 18.8283 8.02745 18.9583 8.40662 18.9583C8.49328 18.9583 8.56909 18.9475 8.65576 18.9366L10.9091 18.6225C11.2774 18.5683 11.7758 18.3191 12.0466 18.0483L16.1308 13.9641C15.9358 13.8883 15.7408 13.8125 15.5349 13.7258Z" fill="white"/>
</svg>
