<svg width="18" height="18" viewBox="0 0 18 18" fill="none" xmlns="http://www.w3.org/2000/svg">
<path opacity="0.4" d="M8.99983 16.4475C5.21983 16.4475 2.13733 13.3725 2.13733 9.585V8.175C2.13733 7.8825 2.37733 7.65 2.66233 7.65C2.94733 7.65 3.18733 7.89 3.18733 8.175V9.585C3.18733 12.7875 5.78983 15.39 8.99233 15.39C12.1948 15.39 14.7973 12.7875 14.7973 9.585V8.175C14.7973 7.8825 15.0373 7.65 15.3223 7.65C15.6073 7.65 15.8473 7.89 15.8473 8.175V9.585C15.8623 13.3725 12.7798 16.4475 8.99983 16.4475Z" fill="white"/>
<path d="M8.99993 1.50001C6.47993 1.50001 4.42493 3.55501 4.42493 6.07501V9.59251C4.42493 12.1125 6.47993 14.1675 8.99993 14.1675C11.5199 14.1675 13.5749 12.1125 13.5749 9.59251V6.07501C13.5749 3.55501 11.5199 1.50001 8.99993 1.50001ZM10.6349 7.94251C10.5824 8.14501 10.3949 8.28001 10.1924 8.28001C10.1549 8.28001 10.1099 8.27251 10.0724 8.26501C9.30743 8.05501 8.49743 8.05501 7.73243 8.26501C7.48493 8.33251 7.23743 8.19001 7.16993 7.94251C7.10243 7.70251 7.24493 7.44751 7.49243 7.38001C8.41493 7.12501 9.38993 7.12501 10.3124 7.38001C10.5599 7.44751 10.7024 7.69501 10.6349 7.94251ZM11.2724 5.86501C11.2049 6.05251 11.0324 6.16501 10.8449 6.16501C10.7924 6.16501 10.7399 6.15751 10.6874 6.13501C9.53993 5.71501 8.27993 5.71501 7.13243 6.13501C6.89243 6.22501 6.62993 6.10501 6.53993 5.86501C6.45743 5.63251 6.57743 5.37001 6.81743 5.28001C8.16743 4.79251 9.65243 4.79251 10.9949 5.28001C11.2349 5.37001 11.3549 5.63251 11.2724 5.86501Z" fill="white"/>
</svg>
