<svg width="26" height="26" viewBox="0 0 26 26" fill="none" xmlns="http://www.w3.org/2000/svg">
<path opacity="0.4" d="M20.5183 5.87166L14.9175 2.6325C13.845 2.015 12.1658 2.015 11.0933 2.6325L5.4383 5.89333C3.1958 7.41 3.0658 7.6375 3.0658 10.0533V15.9358C3.0658 18.3517 3.1958 18.59 5.48163 20.1283L11.0825 23.3675C11.6241 23.6817 12.3175 23.8333 13 23.8333C13.6825 23.8333 14.3758 23.6817 14.9066 23.3675L20.5616 20.1067C22.8041 18.59 22.9341 18.3625 22.9341 15.9467V10.0533C22.9341 7.6375 22.8041 7.41 20.5183 5.87166Z" fill="white"/>
<path d="M13 16.5208C14.9445 16.5208 16.5208 14.9445 16.5208 13C16.5208 11.0555 14.9445 9.47916 13 9.47916C11.0555 9.47916 9.47913 11.0555 9.47913 13C9.47913 14.9445 11.0555 16.5208 13 16.5208Z" fill="white"/>
</svg>
