<svg width="20" height="20" viewBox="0 0 20 20" fill="none" xmlns="http://www.w3.org/2000/svg">
<path d="M14.5834 14.8583H13.0417C12.7 14.8583 12.4167 14.575 12.4167 14.2333C12.4167 13.8917 12.7 13.6083 13.0417 13.6083H14.5834C14.925 13.6083 15.2084 13.8917 15.2084 14.2333C15.2084 14.575 14.925 14.8583 14.5834 14.8583Z" fill="black"/>
<path d="M10.8084 14.8583H5.41669C5.07502 14.8583 4.79169 14.575 4.79169 14.2333C4.79169 13.8917 5.07502 13.6083 5.41669 13.6083H10.8084C11.15 13.6083 11.4334 13.8917 11.4334 14.2333C11.4334 14.575 11.1584 14.8583 10.8084 14.8583Z" fill="black"/>
<path d="M14.5833 11.725H9.97498C9.63331 11.725 9.34998 11.4416 9.34998 11.1C9.34998 10.7583 9.63331 10.475 9.97498 10.475H14.5833C14.925 10.475 15.2083 10.7583 15.2083 11.1C15.2083 11.4416 14.925 11.725 14.5833 11.725Z" fill="black"/>
<path d="M7.72502 11.725H5.41669C5.07502 11.725 4.79169 11.4416 4.79169 11.1C4.79169 10.7583 5.07502 10.475 5.41669 10.475H7.72502C8.06669 10.475 8.35002 10.7583 8.35002 11.1C8.35002 11.4416 8.06669 11.725 7.72502 11.725Z" fill="black"/>
<path opacity="0.4" d="M13.4917 1.66669H6.50835C3.47502 1.66669 1.66669 3.47502 1.66669 6.50835V13.4834C1.66669 16.525 3.47502 18.3334 6.50835 18.3334H13.4834C16.5167 18.3334 18.325 16.525 18.325 13.4917V6.50835C18.3334 3.47502 16.525 1.66669 13.4917 1.66669Z" fill="black"/>
</svg>
